<svg version="1.0" xmlns="http://www.w3.org/2000/svg" width="1112" height="842.667" viewBox="0 0 834 632"><path d="M241.5 23c-7.7 7.9-19 12.2-48.5 18.5-26.9 5.7-36 9.5-44.4 18.5-7.8 8.5-9.2 13.3-8.9 31.2.1 7.6-.2 13.8-.6 13.8-.5 0-4-1.4-7.7-3.2-14.6-6.8-25.3-2.6-32.1 12.7-1.3 3-1.7 6.5-1.7 14.5.1 9.3.4 11.5 3.2 18.8 1.8 4.6 3.2 8.6 3.2 9 0 .4-2 .6-4.5.4-2.5-.2-8.2.1-12.7.7-21.8 2.9-42.6 21.3-46.8 41.4-.7 3.6-1 39.5-.8 117.2l.3 112 3.6 7.6c3.8 8 13.9 19.7 19.8 23.2 3 1.7 3.1 1.7 3.1 0 0-.9-2.1-3.9-4.7-6.5s-4.4-5-4.1-5.3c.3-.3 33.3-7.6 73.3-16.2l72.7-15.6 71.2 15.2c39.1 8.4 72.4 15.7 74 16.3l2.8 1.1-4.1 3.5c-3.7 3-4.1 3.8-4.1 7.8 0 2.4.3 4.4.8 4.4 2.9 0 185.5 23 185.9 23.4.3.3-.6 1.9-2.1 3.6-2.4 2.9-2.6 3.8-2.6 13.1v9.9l85.7-.2 85.8-.3.9-4c.5-2.2.9-8.3.9-13.5 0-8.2-.4-10.6-3.1-17.8-1.8-4.6-3.2-8.5-3.2-8.8 0-.2 3.7-.4 8.3-.4 15.2 0 27.6-5 38.3-15.5 7.8-7.6 13.9-17.1 16.5-25.5 1.9-6.3 1.9-9.3 1.7-119l-.3-112.5-3.1-6.6c-3.8-8-14.3-19.5-22.3-24.3-9.4-5.7-17.1-7.8-28.9-7.9-9 0-10.2-.2-9.6-1.6 5-12.2 6.6-18.8 6.6-27.9 0-8.8-.3-10-3.4-16-7.4-14.5-16.6-16.8-34.1-8.8l-5.8 2.6.8-7.2c1.8-16.3-.5-29-6.6-36.7-4.5-5.7-14-11.7-23-14.5-4.2-1.3-16-4.3-26.1-6.5-10.2-2.3-22-5.3-26.2-6.7-8.6-2.8-18.8-9-21.4-12.8l-1.6-2.6H245.4l-3.9 4zm205.4 209c23 56.9 44 108.3 46.8 114.1 11.3 23.7 18.8 30.8 34.6 32.4l6.7.7V392H423v-6.5c0-4.5.4-6.5 1.3-6.5 6.5-.2 20-2.1 23-3.3 4.8-2 7.7-6.9 7.7-12.8 0-6.9-3.1-17.1-12.8-42.4l-8.8-23-46.1-.3-46.1-.2-7 17.7c-11.4 28.9-15.3 43.7-13.8 51.9 1.5 7.8 9.7 12.4 22.1 12.4h4.5v13h-84v-12.7l6.8-1.2c13.9-2.5 21.7-8.2 27.8-20.3 2.6-5.1 76.2-188.2 91.5-227.6.8-2.1 1.4-2.3 8.5-2l7.6.3L446.9 232z"/><path d="M368.6 228.2c-10.8 27.2-19.6 49.7-19.6 50.1 0 .4 17.3.7 38.5.7s38.5-.2 38.5-.5c0-.7-37-98.8-37.4-99.3-.2-.2-9.2 21.9-20 49zM86 460.5v3.5h232v-7H86v3.5zM103.1 473.1c-.6 1.8-1.1 3.4-1.1 3.5 0 .2 48.6.4 108 .4h108v-7H104.2l-1.1 3.1zM125 508.5c0 10.2.3 18.5.8 18.5.4 0 3.9-1.4 7.9-3.2l7.2-3.3.1-15.3V490h-16v18.5zM149 528.4v38.4l3.5 3.1c3.1 2.7 10.5 7.1 12 7.1.3 0 .5-19.6.5-43.5V490h-16v38.4zM173 535v44.9l5.3 1.5c2.8.8 6.4 1.7 8 2l2.7.6v-94h-16v45zM197 537.8v47.9l5.8 1.2c3.1.7 6.7 1.5 8 1.8l2.2.5V490h-16v47.8zM221 541c0 32.3.4 51 1 51 .7 0 8.9 3.5 13.3 5.8.4.2.7-24 .7-53.7V490h-15v51zM245 549v59h15V490h-15v59zM269 549v59h15V490h-15v59zM344 493.5v2.5h178v-5H344v2.5zM344 501.5c0 1.3 10.6 1.5 89 1.5s89-.2 89-1.5-10.6-1.5-89-1.5-89 .2-89 1.5zM385 562v46h13v-92h-13v46zM403.2 561.7l.3 45.8 6.8.3 6.7.3V516h-14l.2 45.7zM422 562v46h13v-92h-13v46zM440 562v46.1l6.8-.3 6.7-.3.3-45.8.2-45.7h-14v46zM459 562v46h13v-92h-13v46zM139.5 533.6c-.5 5-.3 10.3.3 12.7.8 3.6 1 2.3 1.1-8.6 0-7-.1-12.7-.3-12.7-.2 0-.7 3.9-1.1 8.6zM560.3 561.7c16.9.2 44.5.2 61.5 0 16.9-.1 3-.2-30.8-.2s-47.7.1-30.7.2zM530 565c0 .7 20.5 1 59.5 1s59.5-.3 59.5-1-20.5-1-59.5-1-59.5.3-59.5 1zM535 590v19h7.4c6.9 0 7.6-.2 9.5-2.6 1.9-2.5 2.1-4 2.1-19V571h-19v19zM559 585v14l5.8-2.9c3.1-1.6 7.4-3.4 9.5-4.1l3.7-1.2V571h-19v14zM583 580c0 6.6.3 9 1.3 8.9.6 0 4.8-.8 9.2-1.8l8-1.7.3-7.2.3-7.2H583v9zM607 577.6v6.6l3-.7c1.7-.4 5.8-1.4 9.3-2.3l6.2-1.7.3-4.3.3-4.2H607v6.6zM631 574.1c0 2.7.3 3 2.3 2.4 2.4-.8 8.7-4.4 8.7-5.1 0-.2-2.5-.4-5.5-.4-5.5 0-5.5 0-5.5 3.1z"/></svg>