<svg version="1.0" xmlns="http://www.w3.org/2000/svg" width="770.667" height="576" viewBox="0 0 578 432"><path d="M180.5 15.3c-4.6 4.6-11.7 7.4-28.6 11.2-22 5-27 6.9-32.9 12.2-6.5 5.8-8.5 12-7.7 24 .3 4.8.1 8.3-.5 8.3-.5 0-2.7-.9-5-2.1-4.4-2.2-11.4-2.7-14.7-1-2.7 1.5-6.6 6.8-8 11-2.1 6.4-.9 16.2 3.3 26.2.6 1.4-.4 1.7-7.7 2.1-11.2.6-19.3 4.4-26.8 12.6-10.2 11.1-9.4 3.2-9.4 94.7v80l2.7 5c2.9 5.6 9 13 11.9 14.5 1.4.8 1.7.7 1.4-.3-.4-1 9-3.3 38.4-9.6l38.9-8.3 38.3 8.2c21.1 4.5 38.8 8.4 39.2 8.7.5.3-.1 1.5-1.3 2.8-1.2 1.3-2 3.1-1.8 4.2.3 1.6 5.3 2.4 49.5 7.8 27.1 3.4 49.6 6.4 49.9 6.8.4.4.2 1.3-.4 1.9-.7.7-1.2 3.6-1.2 6.5v5.3h46c45.3 0 46 0 46-2 0-1.8.7-2 5.4-2 5.1 0 5.6.2 7 3.2 1.2 2.2 1.6 6 1.6 13.4 0 9.9-.1 10.4-2.2 10.8-2.7.6-17.9 3.6-18.2 3.6 0 0 .1 9.6.4 21.2l.5 21.3.5-20.9.5-21 8.5-1.6c4.7-.8 9.1-2 9.9-2.4 1.1-.7 1.3-3.7.9-15.7-.4-8.9-.2-14.9.4-14.9.5 0 7.2-.7 14.9-1.5 12.5-1.4 15.2-1.4 27.2 0 7.2.8 13.8 1.5 14.5 1.5.9 0 1.3 2.7 1.4 9.7.1 7.4.3 8.3.5 3.5.2-3.4.8-6.2 1.3-6.2.6 0 1-.9 1-2 0-1.8.7-2 7.1-2h7l-.3-31c-.2-24.3 0-31 1-31 .6 0 1.2-.4 1.2-.9s-.6-1.1-1.2-1.4c-.7-.3 6-.6 15-.8 13.7-.3 16.1-.2 15.7 1-.3.8-.1 1.8.6 2.1.7.5 1.1 5.4 1 15.1l-.1 14.4 3.6-4c2-2.2 4.8-6.3 6.2-9l2.7-5 .3-79.4.2-79.3-2.3-5.2c-6-12.8-18.7-21.3-33.6-22.3-4.4-.3-8.1-.7-8.1-.8 0-.1.9-2.7 1.9-5.8 2.8-8.1 3.4-13.5 2.1-19.2-2.8-12.6-12.5-17.9-23-12.5-2.2 1.1-4.3 2-4.9 2-.5 0-.8-4.4-.7-10.3.1-8.8-.2-10.8-2.2-14.9-4.2-8.4-11.9-13-28.2-16.8-22.5-5.3-25.5-6.1-31-8.6-3.2-1.4-7.1-3.9-8.6-5.5l-2.8-2.9-105.5.1-105.6.2-3 3zM217 175.5c0 16.8.3 30.5.7 30.5 1.3 0 20.3-19.4 20.3-20.6 0-1.5-2.3-2.4-6.1-2.4-2.2 0-2.9-.5-2.9-2 0-1.9.7-2 14.9-2 13.4 0 14.9.2 14.7 1.7-.2 1.1-1.8 2.1-4.5 2.7-3.1.8-7.1 3.5-14.6 10.1-5.7 4.9-10.4 9.2-10.4 9.5-.1.3 5.8 7.1 12.9 15.2 10.7 12.1 13.7 14.9 17 15.9 2.8.9 4 1.8 4 3.1 0 1.7-1.1 1.8-15 1.8-14.3 0-15-.1-15-2 0-1.4.7-2 2.3-2 4.8 0 5-1.4 1-6.7-7.5-9.9-13.8-17.2-14.9-17.2-.6-.1-1.9.8-2.9 1.9-1.5 1.7-1.7 3.1-1.1 9.7.7 8.6 2.1 10.9 7.2 11.9 2.5.4 3.4 1.2 3.4 2.5 0 1.9-.8 1.9-16.2 1.7-13.5-.3-16.3-.5-16.3-1.8 0-.8 1.6-1.9 3.9-2.5 6.8-1.9 6.6-.9 6.6-41.4 0-20.1-.4-37.2-.9-38-.5-.8-2.9-1.7-5.3-2-3.4-.5-4.3-1-4.3-2.6 0-1.7 1.2-2.2 8.5-3.6 4.7-.9 9.5-1.7 10.8-1.8l2.2-.1v30.5zm70-9.5c0 11.5.2 21 .5 21s2.5-1.6 5-3.5c11.7-8.9 29.8-7.4 35 3 1.7 3.5 2.1 6.6 2.5 24.1.5 21.7.8 22.8 6.1 23.9 2 .5 2.9 1.3 2.9 2.6 0 1.8-.9 1.9-15 1.9-14 0-15-.1-15-1.9 0-1.3 1-2.1 3.4-2.5 5.8-1.1 6.1-2.1 6.1-21 0-19.6-1.4-25.4-6.5-28.1-7.6-3.9-18.1.1-22.6 8.7-1.7 3.2-2 34.8-.4 37.7.5 1 2.5 2.2 4.5 2.5 2.6.5 3.5 1.2 3.5 2.7 0 1.9-.6 1.9-15.2 1.7-13.2-.3-15.3-.5-15.6-1.9-.2-1.2.7-1.8 3.2-2.3 6.6-1.3 6.6-1.1 6.6-40.6 0-40-.1-40.3-6.3-40.8-3.3-.3-3.8-.6-3.5-2.5.3-1.8 1.5-2.4 8.3-3.8 4.4-.9 9-1.7 10.3-1.8l2.2-.1v21zm-175.5 19.2c18.4 46 20 48.8 26.5 48.8 2.5 0 3 .4 3 2.5v2.5h-37v-2.5c0-2.1.5-2.5 3.1-2.5 7.9 0 8.7-3.8 3.5-17.5l-3.4-9H76.5l-3.2 8.5c-3.4 9-4.1 15.1-2 16.8.6.6 2.6 1.2 4.2 1.4 2.2.2 3 .8 3 2.3 0 1.9-.8 2-13.7 2.3l-13.8.3v-2.4c0-2 .7-2.6 3.2-3.1 1.8-.3 4.2-1.6 5.5-2.8 1.4-1.3 7.5-15.3 16.4-37.7 7.8-19.6 14.7-37.1 15.5-38.9.9-2.4 1.9-3.2 3.7-3.2 2.3 0 3.4 2.4 16.2 34.2zm79.8-5.4c2.7 2.4 1.9 7.3-1.5 9.1-2.4 1.4-3.2 1.4-8.3-.3l-5.5-1.9-2.6 2.4c-3.4 3.2-5.9 8.2-7.3 14.7-1.4 6.5-1.5 25.7-.1 28.1.5 1 2.5 2.2 4.5 2.5 2.6.5 3.5 1.2 3.5 2.6 0 1.9-.8 2-15 2-14.1 0-15-.1-15-1.9 0-1.3.9-2.1 3-2.6 5.9-1.3 6-1.8 6-23.6 0-18.6-.1-20-2-21.9-1.1-1.1-3.3-2-5-2-2.3 0-3-.4-3-2 0-1.2.8-2.1 2.3-2.5 20.3-4.5 18.7-4.6 18.8.7.1 2.4.4 5.4.8 6.8l.7 2.5 1.7-3.1c.9-1.8 3.5-4.8 5.8-6.7 6.3-5.5 13.8-6.7 18.2-2.9zm193.6 0c7.2 3.5 7.5 4.9 8.1 28.5.3 11.7.9 21.8 1.3 22.4 1.6 2.6 4.3 3.2 7 1.8 2.2-1.1 2.6-1.1 3.1.2 1.3 3.3-5.3 7.3-11.9 7.3-4.9 0-9.5-4.5-9.5-9.2v-3.3l-3.2 3.9c-11 13.4-32.8 10-32.8-5.1 0-8.1 5.8-13.4 22.8-20.8 5.9-2.6 11.1-5 11.6-5.5s.5-3.4.1-6.5c-.8-6.8-3.6-10.3-8.7-11.2-6.4-1-8.6.2-11.2 6.1-2.5 5.6-4.5 7.1-8 6-4.6-1.4-5-7.7-.8-11.6 5.9-5.6 23.5-7.2 32.1-3zm79.2.3c2.1 1 4.6 3.2 5.6 4.7.9 1.5 1.8 2.9 2 3.1.1.2 1.9-1.1 4-2.9 5.5-4.8 11.7-7.2 18.7-7.3 10.4-.1 16.8 3.5 19.6 10.8.6 1.6 1.4 11.8 1.7 22.5.3 10.7.9 20.2 1.4 21.1.5.9 2.4 2 4.4 2.3 2.6.5 3.5 1.2 3.5 2.6 0 1.9-.8 2-15 2-14.1 0-15-.1-15-1.9 0-1.3.9-2.1 3-2.6 5.4-1.2 6-3.2 6-21 0-17.9-.9-22.5-5-26.7-5.8-5.8-17.5-2.7-23.1 5.9l-2.9 4.7v16.1c0 17.8.6 19.8 6 21 2.1.5 3 1.3 3 2.6 0 1.8-.9 1.9-15 1.9-14.2 0-15-.1-15-2 0-1.4.9-2.1 3.5-2.6 2-.3 4-1.5 4.6-2.6 2.9-5.4 1.8-36.2-1.5-42.5-4.5-8.8-21-6-26.2 4.3-1.6 3.4-1.9 6.1-1.9 20.5 0 18.3.3 19.3 6 20.3 2.6.5 3.5 1.2 3.5 2.6 0 1.9-.8 2-15.5 2-14.6 0-15.5-.1-15.5-1.9 0-1.4 1-2.1 3.7-2.8 6-1.4 6.4-3 6.1-25.4-.3-21.8-.6-22.9-6.5-22.9-3 0-3.4-.3-3.1-2.2.2-1.9 1.4-2.5 7.3-4 11.1-2.6 11.1-2.6 11.9 3.2.7 5.5 1.4 6 4.1 3 7.4-8.2 21.9-10.9 31.6-5.9z"/><path d="M91.1 171.1c-.5 1.3-3.4 8.6-6.4 16.1L79.2 201h25.5l-5.9-15.8c-3.3-8.6-6.2-15.9-6.4-16.1-.2-.2-.8.7-1.3 2zM372 209.7c-9.4 4.8-13 8.9-13 14.8 0 11 13.8 11.4 19.9.5 1.5-2.8 2.4-6.4 2.8-11.5.7-9 .6-9.1-9.7-3.8zM73 319.3c0 2.1 15.3 2.7 72.7 2.7 50.6 0 51.3 0 51.3-2s-.7-2-62-2c-51.3 0-62 .2-62 1.3zM85.7 325.7c-.4.3-.7 1.2-.7 2 0 1.1 10 1.3 56 1.3 55.3 0 56 0 56-2s-.7-2-55.3-2c-30.5 0-55.7.3-56 .7zM94 348.5V362h8v-27h-8v13.5zM107 347c0 6.6.3 12 .6 12s1.3-.4 2.3-.9c1.6-.9 1.7-.2 1.7 9.7-.1 8 .3 11.6 1.6 14.2 1.6 3.4 1.6 2.6 1.7-21.8l.1-25.2h-8v12zM120 362.9v28l2.6 2c5.5 4.3 5.4 4.7 5.4-27.9v-30h-8v27.9zM132.5 336.2c-.3.7-.4 14.8-.3 31.3l.3 30 4.3.3 4.2.3-.2-31.3-.3-31.3-3.8-.3c-2.4-.2-3.9.1-4.2 1zM145 366.5V398h8v-63h-8v31.5zM158 366.5V398h8v-63h-8v31.5zM171 366.5V398h8v-63h-8v31.5zM211.3 337.2c.3 1 10.6 1.3 47.2 1.3s46.9-.3 47.3-1.3c.3-.9-9.6-1.2-47.3-1.2-37.7 0-47.6.3-47.2 1.2zM211 342c0 .7 16.5 1 47.5 1s47.5-.3 47.5-1-16.5-1-47.5-1-47.5.3-47.5 1zM233 373.5V398h7v-49h-7v24.5zM243 373.4V398h7l-.2-24.3-.3-24.2-3.2-.3-3.3-.3v24.5zM253 373.4V398h7l-.2-24.3-.3-24.2-3.2-.3-3.3-.3v24.5zM262.6 349.8c-.3.5-.6 11.6-.5 24.6V398h7.9l-.2-24.3-.3-24.2-3.2-.3c-1.7-.2-3.4.1-3.7.6zM272.7 349.7c-.4.3-.7 11.4-.7 24.5V398h7v-49h-2.8c-1.6 0-3.2.3-3.5.7zM313 398.5V418h10v-39h-10v19.5zM326 398.5V418h10v-39h-10v19.5zM339 398.5V418h10v-39h-10v19.5zM352 398.5V418h10v-39h-10v19.5zM365 397.5c0 10.2-.1 18.8-.2 19.2-.2.5 1.8.9 4.5 1.1l4.7.3V379h-9v18.5zM377 398.5V418h10v-39h-10v19.5zM400.5 395c0 8.2.4 15 .8 15s2.1-.7 3.7-1.5l3-1.6V380h-7.5v15z"/></svg>